<svg xmlns="http://www.w3.org/2000/svg" width="251.429" height="460.495" viewBox="0 0 251.429 460.495">
  <defs>
    <style>
      .cls-1 {
        fill: #d63447;
      }
    </style>
  </defs>
  <g id="appdevelopment" transform="translate(-104.532)">
    <g id="Group_1" data-name="Group 1">
      <path id="Path_1" data-name="Path 1" class="cls-1" d="M355.961,406.652V53.847C355.961,28.678,328.434,0,304.3,0H156.2c-24.141,0-51.666,28.686-51.666,53.847v352.8c0,25.167,27.525,53.848,51.666,53.848h148.1C328.434,460.5,355.961,431.813,355.961,406.652Zm-239.576,0V53.847c0-19.245,21.581-42,39.813-42h148.1c18.234,0,39.806,22.759,39.806,42v352.8c0,19.241-21.581,41.995-39.806,41.995H156.2C137.966,448.646,116.385,425.888,116.385,406.652Z"/>
      <path id="Path_2" data-name="Path 2" class="cls-1" d="M301.921,384.218a18.785,18.785,0,0,0,18.764-18.764V86.346a18.774,18.774,0,0,0-18.764-18.76H149.13a18.773,18.773,0,0,0-18.763,18.76V365.454a18.785,18.785,0,0,0,18.763,18.764H301.921ZM136.29,365.454V86.346a12.855,12.855,0,0,1,12.84-12.837H301.921a12.853,12.853,0,0,1,12.837,12.837V365.454a12.851,12.851,0,0,1-12.837,12.837H149.13A12.853,12.853,0,0,1,136.29,365.454Z"/>
      <path id="Path_3" data-name="Path 3" class="cls-1" d="M315.24,405.926v-1.818a9.5,9.5,0,0,0-9.495-9.485H149.3a9.5,9.5,0,0,0-9.5,9.485v1.818a11.169,11.169,0,0,0,8.826,10.734,428.831,428.831,0,0,0,75.9,7.109h5.987a428.9,428.9,0,0,0,75.9-7.109A11.172,11.172,0,0,0,315.24,405.926Zm-84.718,11.928h-5.994a423.443,423.443,0,0,1-74.8-7.007,5.307,5.307,0,0,1-4-4.921v-1.818a3.572,3.572,0,0,1,3.57-3.56H305.744a3.573,3.573,0,0,1,3.574,3.56v1.818a5.308,5.308,0,0,1-3.985,4.921A423.707,423.707,0,0,1,230.522,417.854Z"/>
      <path id="Path_4" data-name="Path 4" class="cls-1" d="M207.384,32.573h38.384a2.963,2.963,0,1,0,0-5.926H207.384a2.963,2.963,0,0,0,0,5.926Z"/>
      <path id="Path_5" data-name="Path 5" class="cls-1" d="M160.561,32.342h8.16a2.17,2.17,0,0,0,2.173-2.171V26.339a2.169,2.169,0,0,0-2.173-2.158h-8.16a2.17,2.17,0,0,0-2.181,2.158v3.824A2.169,2.169,0,0,0,160.561,32.342Z"/>
      <circle id="Ellipse_1" data-name="Ellipse 1" class="cls-1" cx="4.084" cy="4.084" r="4.084" transform="translate(177.705 24.174)"/>
      <path id="Path_6" data-name="Path 6" class="cls-1" d="M202.746,83.794H152.487a7.9,7.9,0,0,0-7.9,7.9v51.7a7.9,7.9,0,0,0,7.9,7.9h50.259a7.9,7.9,0,0,0,7.9-7.9v-51.7A7.9,7.9,0,0,0,202.746,83.794Z"/>
      <path id="Path_7" data-name="Path 7" class="cls-1" d="M274.611,83.794H224.352a7.9,7.9,0,0,0-7.9,7.9v51.7a7.9,7.9,0,0,0,7.9,7.9h50.259a7.9,7.9,0,0,0,7.9-7.9v-51.7A7.9,7.9,0,0,0,274.611,83.794Z"/>
      <path id="Path_8" data-name="Path 8" class="cls-1" d="M202.746,156.026H152.487a7.9,7.9,0,0,0-7.9,7.9v51.706a7.9,7.9,0,0,0,7.9,7.9h50.259a7.9,7.9,0,0,0,7.9-7.9V163.925A7.9,7.9,0,0,0,202.746,156.026Z"/>
      <path id="Path_9" data-name="Path 9" class="cls-1" d="M274.611,156.026H224.352a7.9,7.9,0,0,0-7.9,7.9v51.706a7.9,7.9,0,0,0,7.9,7.9h50.259a7.9,7.9,0,0,0,7.9-7.9V163.925A7.9,7.9,0,0,0,274.611,156.026Z"/>
      <path id="Path_10" data-name="Path 10" class="cls-1" d="M202.746,228.255H152.487a7.9,7.9,0,0,0-7.9,7.9v51.724a7.9,7.9,0,0,0,7.9,7.9h50.259a7.9,7.9,0,0,0,7.9-7.9V236.154A7.9,7.9,0,0,0,202.746,228.255Z"/>
      <path id="Path_11" data-name="Path 11" class="cls-1" d="M274.611,228.255H224.352a7.9,7.9,0,0,0-7.9,7.9v51.724a7.9,7.9,0,0,0,7.9,7.9h50.259a7.9,7.9,0,0,0,7.9-7.9V236.154A7.894,7.894,0,0,0,274.611,228.255Z"/>
      <path id="Path_12" data-name="Path 12" class="cls-1" d="M202.746,300.492H152.487a7.9,7.9,0,0,0-7.9,7.9v51.7a7.9,7.9,0,0,0,7.9,7.9h50.259a7.9,7.9,0,0,0,7.9-7.9v-51.7A7.9,7.9,0,0,0,202.746,300.492Z"/>
      <path id="Path_13" data-name="Path 13" class="cls-1" d="M274.611,300.492H224.352a7.9,7.9,0,0,0-7.9,7.9v51.7a7.9,7.9,0,0,0,7.9,7.9h50.259a7.9,7.9,0,0,0,7.9-7.9v-51.7A7.9,7.9,0,0,0,274.611,300.492Z"/>
      <path id="Path_14" data-name="Path 14" class="cls-1" d="M300.479,127.973a10.611,10.611,0,1,0-10.612-10.618A10.63,10.63,0,0,0,300.479,127.973Zm0-19.239a8.635,8.635,0,1,1-8.637,8.628A8.641,8.641,0,0,1,300.479,108.734Z"/>
      <path id="Path_15" data-name="Path 15" class="cls-1" d="M300.479,121.216c.417.348,1.61-.386,2.651-1.643a3.364,3.364,0,0,0-.33-4.471c-1.234-1.216-2.534-1.889-2.925-1.493s-.219,1.16.36,1.739-.193,1.033-1.727,1.033-2.772.442-2.772.988,1.3.987,2.914.987,2.5.5,1.986,1.122C300.139,120.079,300.058,120.869,300.479,121.216Z"/>
    </g>
  </g>
</svg>
