<svg xmlns="http://www.w3.org/2000/svg" width="95" height="85.5" viewBox="0 0 95 85.5">
  <defs>
    <style>
      .cls-1 {
        fill: #d63447;
      }
    </style>
  </defs>
  <g id="uiuxdesign" transform="translate(0 -4.75)">
    <g id="Group_1" data-name="Group 1">
      <path id="Path_1" data-name="Path 1" class="cls-1" d="M93.5,4.75H1.5A1.5,1.5,0,0,0,0,6.25v13.5a1.5,1.5,0,0,0,1.5,1.5h92a1.5,1.5,0,0,0,1.5-1.5V6.25A1.5,1.5,0,0,0,93.5,4.75Z"/>
      <path id="Path_2" data-name="Path 2" class="cls-1" d="M93.5,31.75H41a1.5,1.5,0,0,0-1.5,1.5v10.5a1.5,1.5,0,0,0,1.5,1.5H93.5a1.5,1.5,0,0,0,1.5-1.5V33.25A1.5,1.5,0,0,0,93.5,31.75Z"/>
      <path id="Path_3" data-name="Path 3" class="cls-1" d="M1.5,45.25H26.833a1.5,1.5,0,0,0,1.5-1.5V33.25a1.5,1.5,0,0,0-1.5-1.5H1.5A1.5,1.5,0,0,0,0,33.25v10.5A1.5,1.5,0,0,0,1.5,45.25Z"/>
      <path id="Path_4" data-name="Path 4" class="cls-1" d="M93.5,58.75H65a1.5,1.5,0,0,0-1.5,1.5v7.5a1.5,1.5,0,0,0,1.5,1.5H93.5a1.5,1.5,0,0,0,1.5-1.5v-7.5A1.5,1.5,0,0,0,93.5,58.75Z"/>
      <path id="Path_5" data-name="Path 5" class="cls-1" d="M1.5,69.25H50.833a1.5,1.5,0,0,0,1.5-1.5v-7.5a1.5,1.5,0,0,0-1.5-1.5H1.5A1.5,1.5,0,0,0,0,60.25v7.5A1.5,1.5,0,0,0,1.5,69.25Z"/>
      <path id="Path_6" data-name="Path 6" class="cls-1" d="M75.167,82.75H1.5A1.5,1.5,0,0,0,0,84.25v4.5a1.5,1.5,0,0,0,1.5,1.5H75.167a1.5,1.5,0,0,0,1.5-1.5v-4.5A1.5,1.5,0,0,0,75.167,82.75Z"/>
      <path id="Path_7" data-name="Path 7" class="cls-1" d="M93.5,82.75H84.661a1.5,1.5,0,0,0-1.5,1.5v4.5a1.5,1.5,0,0,0,1.5,1.5H93.5a1.5,1.5,0,0,0,1.5-1.5v-4.5A1.5,1.5,0,0,0,93.5,82.75Z"/>
    </g>
  </g>
</svg>
