<svg xmlns="http://www.w3.org/2000/svg" width="396.493" height="303.758" viewBox="0 0 396.493 303.758">
  <defs>
    <style>
      .cls-1 {
        fill: #d63447;
      }
    </style>
  </defs>
  <g id="webappdesign" transform="translate(0 -46.368)">
    <path id="Path_8" data-name="Path 8" class="cls-1" d="M304.42,330.9H261.2a2.84,2.84,0,0,1-2.834-2.834v-10.52a2.842,2.842,0,0,0-2.834-2.834H195.058a2.842,2.842,0,0,0-2.835,2.834v10.52a2.841,2.841,0,0,1-2.835,2.834H156.9a2.842,2.842,0,0,0-2.835,2.834v12.17a2.842,2.842,0,0,0,2.835,2.834H304.418a2.842,2.842,0,0,0,2.834-2.834v-12.17A2.841,2.841,0,0,0,304.42,330.9Z"/>
    <g id="Group_2" data-name="Group 2">
      <path id="Path_9" data-name="Path 9" class="cls-1" d="M377.032,46.368H68.632A19.482,19.482,0,0,0,49.173,65.83v50.761c0,6.711-.5,7.66,4,7.66H60.9c3.778,0,3-.949,3-7.785V65.83A4.8,4.8,0,0,1,68.632,61.1h308.4a4.8,4.8,0,0,1,4.731,4.733v190H161.893s-7.749-.014-7.749,10.006V289.6c0,10.006,8,10.006,8,10.006H377.032a19.483,19.483,0,0,0,19.461-19.459V65.83A19.484,19.484,0,0,0,377.032,46.368ZM222.833,282.8a8.769,8.769,0,1,1,8.767-8.768A8.769,8.769,0,0,1,222.833,282.8Z"/>
      <path id="Path_10" data-name="Path 10" class="cls-1" d="M124.125,141.633H12.559A12.572,12.572,0,0,0,0,154.193V337.565a12.573,12.573,0,0,0,12.559,12.561H124.125a12.576,12.576,0,0,0,12.559-12.561V154.193A12.574,12.574,0,0,0,124.125,141.633ZM54.58,154.443H82.1a2.38,2.38,0,1,1,0,4.76H54.58a2.38,2.38,0,0,1,0-4.76ZM68.175,341.3a6.5,6.5,0,1,1,6.5-6.5A6.5,6.5,0,0,1,68.175,341.3Zm57.718-19.1a3.023,3.023,0,0,1-2.98,3.047H13.774a3.023,3.023,0,0,1-2.98-3.047V169.825a3.023,3.023,0,0,1,2.98-3.046H122.913a3.023,3.023,0,0,1,2.98,3.046V322.2Z"/>
    </g>
  </g>
</svg>
